<svg xmlns="http://www.w3.org/2000/svg" viewBox="0 0 4207.16 2293.38"><defs><style>.cls-1{fill:#b59b00;}.cls-2{fill:#dbe5e5;}.cls-3{fill:#ffdb00;}.cls-12,.cls-14,.cls-17,.cls-19,.cls-4,.cls-6{fill:none;}.cls-4{stroke:#b59b00;}.cls-10,.cls-13,.cls-14,.cls-16,.cls-17,.cls-18,.cls-19,.cls-4,.cls-6{stroke-miterlimit:10;}.cls-10,.cls-12,.cls-13,.cls-14,.cls-16,.cls-17,.cls-18,.cls-19,.cls-4,.cls-6{stroke-width:5px;}.cls-5{fill:#423c52;}.cls-10,.cls-12,.cls-18,.cls-6{stroke:#423c52;}.cls-12,.cls-18,.cls-19,.cls-6{stroke-linecap:round;}.cls-10,.cls-13,.cls-16,.cls-18,.cls-7{fill:#fff;}.cls-8{fill:#e5f1ef;}.cls-9{fill:#a0505a;}.cls-11{fill:#fe552f;}.cls-12{stroke-linejoin:round;}.cls-13,.cls-14{stroke:#907b00;}.cls-15{fill:#8c7200;}.cls-16,.cls-17{stroke:#8c7200;}.cls-19{stroke:#dbe5e5;stroke-dasharray:15;}</style></defs><g id="Layer_2" data-name="Layer 2"><g id="Слой_1" data-name="Слой 1"><g id="PLANTS"><path class="cls-1" d="M3814,1740.26c-4.2,141.57-19.52,276.64-54.78,399.13l-1252.19,3c-35.25-122.49-54.78-260.42-54.78-402.13,0-560,304.84-1013.93,680.87-1013.93S3831.28,1156.23,3814,1740.26Z"/><path class="cls-2" d="M0,2145.5c63.49-62.6,160.78-20.9,160.78-20.9S131.87,1995.74,257.37,1957c143.89-44.45,201.44,65.68,201.44,65.68s35.35-211.31,222.92-191.55c299.8,31.59,119.76,335.94,449.23,239,157.81-46.43,182.89,74.4,182.89,74.4Z"/><path class="cls-2" d="M4207.16,2141.4l-1621.94,1c64.24-62.6,162.68-20.89,162.68-20.89s-29.25-128.87,97.74-167.64c47.49-14.49,85.68-12.54,115.59-3.34a111.91,111.91,0,0,0,123.94-42.11c30.34-42.27,86.38-80.41,189.86-80.41,88.32,0,156.56,48.65,232.06,96.5,21.11-27,57-44.7,97.65-44.7,65,0,117.62,45.22,117.62,101a87.88,87.88,0,0,1-5.93,31.74c59.46,8.45,128.34,3.86,211.65-22.82C4160.29,1915.31,4207.16,2141.4,4207.16,2141.4Z"/><path class="cls-1" d="M597.39,2272.89c0,11.32-51.68,20.49-115.43,20.49s-115.43-9.17-115.43-20.49c0-7.83,24.75-14.64,61.12-18.09l-30.73-54.08,51.3,30.5v-78.34L478,2213.2,529.33,2008,521,2222.9l52.69-32.58L537.93,2255C573.39,2258.46,597.39,2265.18,597.39,2272.89Z"/><path class="cls-3" d="M3776.31,2018.55l-264.14,2.29c-5.15-.23-10.35-.71-15.59-1.47-133.62-19.31-209.16-62-246.13-132.88a70.89,70.89,0,1,1-29-128.55,654.89,654.89,0,0,1,1.49-66c12.75-185.35,107-319.26,251.89-324.09s266.76,120.89,273,306.57c.48,14.49.23,28.94-.7,43.26a166.65,166.65,0,0,1,19.12-1.73c87.54-2.93,171.21,62.45,174,146S3863.85,2015.62,3776.31,2018.55Z"/><line class="cls-4" x1="3484.25" y1="1534.18" x2="3484.25" y2="2140.44"/><path class="cls-4" d="M3423.94,1504v99.51a45.5,45.5,0,0,0,45.5,45.51h0a14.81,14.81,0,0,1,14.81,14.81"/><path class="cls-4" d="M3484.25,1605.89a75.63,75.63,0,0,1,22.93-54.25l25.6-24.86"/><path class="cls-4" d="M3579.46,1765.72l-42.91,34a137.83,137.83,0,0,0-52.3,108.08"/><path class="cls-4" d="M3484.25,2120.17a58,58,0,0,1,58-58h83.8a96.31,96.31,0,0,0,96.31-96.3v-97.54"/><path class="cls-4" d="M3782.81,1894.67v16.52a25.54,25.54,0,0,1-25.53,25.54h-9.38a25.53,25.53,0,0,0-25.53,25.53"/><path class="cls-1" d="M3722.37,1879.76s-37.77-28.77-20.78-78C3701.59,1801.77,3739.33,1830.54,3722.37,1879.76Z"/><path class="cls-1" d="M3780.73,1902s-16.86-65.21,34.89-58.24Z"/><path class="cls-1" d="M3793.79,1911.31s24.61-25.42,55.81,0C3849.6,1911.31,3830.88,1929.68,3793.79,1911.31Z"/><path class="cls-1" d="M3547.73,1790.83s12.76-45.56,55.58-43.48C3603.31,1747.35,3597.34,1787.16,3547.73,1790.83Z"/><path class="cls-1" d="M3454.09,1911.07s-46.79-17.79-39.51-63.2C3414.58,1847.87,3449.59,1852.26,3454.09,1911.07Z"/><path class="cls-1" d="M3457.62,2069.55s-50.06.34-59.7-44.63C3397.92,2024.92,3432.15,2016.35,3457.62,2069.55Z"/><path class="cls-1" d="M3507.18,1551.64s2.37-40.69,48.13-47.63C3555.31,1504,3559.23,1536.87,3507.18,1551.64Z"/><path class="cls-1" d="M3423.94,1548.73s-8.09-67.25,3.46-86.31C3427.4,1462.42,3462.06,1492.23,3423.94,1548.73Z"/><path class="cls-1" d="M3399.32,1551.64s-40.55-.48-41.24-47.63C3358.08,1504,3387.19,1511.22,3399.32,1551.64Z"/><path class="cls-1" d="M3646.36,2233.48s-62,11.26-76.86-62.82C3569.5,2170.66,3637.5,2176.75,3646.36,2233.48Z"/><path class="cls-5" d="M3715.1,2172.73s-30.53,33.38-76.16-3.29C3638.94,2169.44,3681.63,2143.56,3715.1,2172.73Z"/><path class="cls-1" d="M536.5,1616.09a126.28,126.28,0,0,1-250.4,23.22,181.55,181.55,0,0,1-68.91,13.62c-120,0-217.19-118.65-217.19-265s97.23-265,217.19-265,217.18,118.65,217.18,265A315.37,315.37,0,0,1,417.66,1490,126.25,126.25,0,0,1,536.5,1616.09Z"/><ellipse class="cls-3" cx="171.88" cy="1820.19" rx="91.58" ry="86.07"/><circle class="cls-1" cx="485.44" cy="1446.94" r="28.81"/><line class="cls-6" x1="217.16" y1="1286.05" x2="217.16" y2="2143.05"/><path class="cls-6" d="M156.84,1256.93v99.51A45.52,45.52,0,0,0,202.35,1402h0a14.81,14.81,0,0,1,14.81,14.8"/><path class="cls-6" d="M171.47,1813.76v99.51A45.5,45.5,0,0,0,217,1958.78"/><path class="cls-6" d="M217.16,1358.81a75.63,75.63,0,0,1,22.93-54.25l25.59-24.87"/><path class="cls-6" d="M312.36,1518.64l-42.9,33.94a137.84,137.84,0,0,0-52.3,108.09"/><path class="cls-6" d="M217.16,1873.09a58,58,0,0,1,58-58h10.67a96.29,96.29,0,0,0,96.3-96.3v-97.53"/><path class="cls-6" d="M442.59,1647.58v16.53a25.53,25.53,0,0,1-25.53,25.53h-9.38a25.54,25.54,0,0,0-25.54,25.54"/><path class="cls-5" d="M382.14,1632.68s-37.76-28.77-20.78-78C361.36,1554.69,399.11,1583.46,382.14,1632.68Z"/><path class="cls-5" d="M440.5,1654.86s-16.86-65.21,34.9-58.23Z"/><path class="cls-5" d="M453.57,1664.22s24.61-25.42,55.81,0C509.38,1664.22,490.66,1682.59,453.57,1664.22Z"/><path class="cls-5" d="M280.63,1543.74s12.77-45.55,55.58-43.47C336.21,1500.27,330.25,1540.08,280.63,1543.74Z"/><path class="cls-5" d="M206.47,1700.68s-49.38,8.28-66-34.59C140.44,1666.09,172.88,1652.2,206.47,1700.68Z"/><path class="cls-5" d="M169.58,1866.1s-37.37-4.83-40-39.34C129.6,1826.76,156,1823.84,169.58,1866.1Z"/><path class="cls-5" d="M450.58,1774.81s-36.28,34.49-74.07,8.29C376.51,1783.1,395.61,1753.43,450.58,1774.81Z"/><path class="cls-5" d="M197.71,1495.25s-50.06.34-59.7-44.63C138,1450.62,172.24,1442.05,197.71,1495.25Z"/><path class="cls-5" d="M240.09,1304.56s2.37-40.7,48.13-47.63C288.22,1256.93,292.14,1289.79,240.09,1304.56Z"/><path class="cls-5" d="M156.84,1301.65s-8.09-67.25,3.47-86.32C160.31,1215.33,195,1245.14,156.84,1301.65Z"/><path class="cls-5" d="M132.23,1304.56s-40.56-.49-41.25-47.63C91,1256.93,120.1,1264.14,132.23,1304.56Z"/></g><g id="GROUND"><path class="cls-5" d="M1434.91,2145.5c0-.37,0-.73,0-1.09,0-29.65,23.73-53.67,53-53.67a52.21,52.21,0,0,1,29.83,9.31c2.2-46.25,36.49-83,78.49-83a72.68,72.68,0,0,1,43.79,14.86c7.42-50.87,53.49-90,109.18-90,60.88,0,110.25,46.8,110.25,104.51a100.9,100.9,0,0,1-.94,13.67,67.47,67.47,0,0,1,11.18-.94c28.7,0,53.55,18.43,65.55,45.27l-1.39.37h55c6.68-42.14,39.65-74.15,79.34-74.15,35.73,0,66,25.94,76.59,61.88a73.64,73.64,0,0,1,37.23-10.15c20.41,0,39,8.46,53.23,22.42a91,91,0,0,1,22.28,36.06v4.68Z"/><circle class="cls-5" cx="2043.93" cy="2196.67" r="32.75"/><circle class="cls-5" cx="2110.93" cy="2175.64" r="13.06"/><circle class="cls-7" cx="2037.5" cy="2100.54" r="13.06"/><circle class="cls-7" cx="1485.36" cy="2122.37" r="8.68"/><circle class="cls-7" cx="1693.3" cy="2017.72" r="17.86"/></g><path id="CLOUD" class="cls-8" d="M777.51,305.05c0,.54,0,1.08,0,1.63H1829.43c-.24-33.95-29.31-61.35-65.09-61.35H1661.1l2.46-.55c-21.25-40.43-65.25-68.19-116.09-68.19a139.9,139.9,0,0,0-19.79,1.41,128.52,128.52,0,0,0,1.66-20.58C1529.34,70.49,1441.91,0,1334.09,0c-98.63,0-180.21,59-193.37,135.59a144,144,0,0,0-77.54-22.37c-74.37,0-135.12,55.33-139,125a104.15,104.15,0,0,0-52.84-14C819.53,224.2,777.51,260.38,777.51,305.05Z"/><g id="TREE"><line class="cls-6" x1="1878.46" y1="2142.16" x2="1878.46" y2="488.26"/><path class="cls-6" d="M1981.3,607.78l-90.4,220.59a166.78,166.78,0,0,0-12.44,63.19v36.7"/><line class="cls-6" x1="1939.45" y1="709.89" x2="2003.2" y2="679.38"/><path class="cls-6" d="M1838.89,587.17l31.37,67.6a88.3,88.3,0,0,1,8.2,37.16v36"/><path class="cls-6" d="M1747.38,791l112.33,235a191.8,191.8,0,0,1,18.75,82.7v57.32"/><path class="cls-6" d="M2074.41,1158.08l-170.31,265a159.92,159.92,0,0,0-25.64,86.86v51.92"/><path class="cls-5" d="M1970.22,634.81s-19.48-67.51,54-94.78C2024.23,540,2043.31,606.64,1970.22,634.81Z"/><path class="cls-5" d="M1762.64,898.22s-50.84,1.85-65.17-52.69C1697.47,845.53,1751.56,839.06,1762.64,898.22Z"/><path class="cls-5" d="M2043.18,1232.83s27.26-44.67,97.51-27.65C2140.69,1205.18,2107,1256.4,2043.18,1232.83Z"/><path class="cls-5" d="M1868.14,645.2s-36.63,30-73.41-13.26C1794.73,631.94,1841.63,611.15,1868.14,645.2Z"/><path class="cls-5" d="M1767.46,830s-37.64-40.69-.66-103.71C1766.8,726.33,1812.09,767.43,1767.46,830Z"/><path class="cls-5" d="M1962.13,1336.69s22-54.33,108.39-48.39C2070.52,1288.3,2039.84,1348.56,1962.13,1336.69Z"/><path class="cls-1" d="M1904.73,505.37c0,17.35-11.72,31.43-26.16,31.43s-26.16-14.08-26.16-31.43,26.16-86.8,26.16-86.8S1904.73,488,1904.73,505.37Z"/><path class="cls-1" d="M1854.64,621.11s-60.58-17.3-41.17-90.32C1813.47,530.79,1871.77,566.31,1854.64,621.11Z"/><path class="cls-1" d="M1762.63,828.13s-52.4-23.27-49.63-96.3C1713,731.83,1772.34,751.85,1762.63,828.13Z"/><path class="cls-1" d="M1829.19,903.3s-34.66-39.28-7.86-92.9C1821.33,810.4,1857.38,856.16,1829.19,903.3Z"/><path class="cls-1" d="M1965.44,1273.72s-37.35-70.47,25-119.46C1990.49,1154.26,2020.81,1219.86,1965.44,1273.72Z"/><path class="cls-1" d="M2047.55,1201.31s-7.61-78,54.32-103C2101.87,1098.34,2118.94,1164.24,2047.55,1201.31Z"/><path class="cls-1" d="M1962.13,1336.69s41.41-39.82,126.69-10.85C2088.82,1325.84,2037,1369,1962.13,1336.69Z"/><path class="cls-1" d="M1980.14,690.41s13.12-50.09,75.51-35.76C2055.65,654.65,2036.35,703.07,1980.14,690.41Z"/><path class="cls-1" d="M1970.45,633.36s13.11-50.09,75.51-35.76C2046,597.6,2026.66,646,1970.45,633.36Z"/></g><g id="WOMAN"><g id="HEAD"><path id="HAIR" class="cls-3" d="M2483.17,1129.28c17.32,66-48.07,61.73-31.07,113s117.07,24.89,117.07,24.89l-3.74-137.84Z"/><g id="NECK"><polygon class="cls-9" points="2553.73 1216.48 2554.03 1264.77 2660.31 1264.77 2632.18 1186.17 2553.73 1216.48"/><polygon class="cls-5" points="2632.95 1188.32 2554.03 1264.78 2553.77 1216.46 2632.18 1186.17 2632.95 1188.32"/></g><g id="HAIR-2" data-name="HAIR"><path class="cls-3" d="M2483.17,1129.28c-5.74-8.17-11.1-39.29,34.66-59.62s71.64-27.74,118.32,7.39,107.22,65.63,108.15,132.18-60,85.5-115.45,78.57-58.71-72.3-23.26-91l-33.34-59.15S2504,1158.86,2483.17,1129.28Z"/><circle class="cls-3" cx="2786.62" cy="1228.31" r="20.89"/></g><g id="HEAD-2" data-name="HEAD"><path class="cls-9" d="M2483.53,1129.78c34.54,23.81,77.28,11,77.28,11l24.33-6.79a33.15,33.15,0,0,1,21.24,62.71l-53.63,20.78a40.72,40.72,0,0,1-54.16-27.89l-2.22-8.66-8,1.71a5.66,5.66,0,0,1-6.84-5.83Z"/><ellipse class="cls-5" cx="2511.45" cy="1163.76" rx="4.36" ry="7.61" transform="translate(-245.47 916.58) rotate(-19.74)"/><path class="cls-6" d="M2600.63,1144.07c-10.34,2.52-16.55,13.43-13.89,24.39"/></g></g><g id="HAND"><path class="cls-9" d="M2401,1641.35c-22.58,23.91-46.95,49.71-72,76.13-28.57,30.15-58,61.11-86.48,91-93.08,97.62-176.64,183.92-190.45,193.84-33.27,23.91-88.39,59.3-191.33,59.26-26.34,0-73.33-48.41-97.33-75.2a10,10,0,0,1,7.61-16.6c37,.66,87.89-3.64,100-21.56,21.84-32.23-50.86-14.54-48.78-45.76,0,0,93.58-14.54,123.74-40.9,12.09-10.56,159.78-198.38,286.25-360.1h0S2240.64,1576,2401,1641.35Z"/><path class="cls-6" d="M1919.93,2030.83c-26.92,7.79-56.44,13-96,13"/><path class="cls-6" d="M1899,2008.89c-26.92,7.79-58.43,13-98,13"/><path class="cls-6" d="M1878.14,1987c-26.92,7.79-59.44,13-99,13"/><path class="cls-6" d="M2239.38,1807.45a67.42,67.42,0,0,1-12.35-39.16c0-36,27.56-65.16,61.57-65.16a59.1,59.1,0,0,1,37.26,13.3"/></g><g id="BLOUSE"><path class="cls-5" d="M3107.46,1698.86v.16c0,122.58-477.21-14.37-477.21-14.37s474-80.78,477.2,13.35C3107.45,1698.28,3107.46,1698.58,3107.46,1698.86Z"/><path class="cls-10" d="M3104.43,1695.77c-3.2-89.52-473.14-12.7-473.14-12.7l-89.07-143.65a26.22,26.22,0,0,0-41.38-4.11c-22,23.41-57.78,61.46-99.86,106-160.34-65.33-168.72-139.89-168.72-139.89,44.44-56.83,86.26-110.44,118.64-152a213.65,213.65,0,0,1,168.54-82.33H2747a192,192,0,0,1,157,81.42C2979.78,1456.13,3103.24,1638.73,3104.43,1695.77Z"/></g><g id="PANTS"><path class="cls-11" d="M3028.82,1659.86s12,25.28,23.67,70.35c16.17,62.45,25.77,147.28-24.67,184.07-83,60.5-433.27,38.82-433.27,38.82v191.34H2398.44a171.25,171.25,0,0,1-77.28-324.07c104.26-52.73,265-128.6,311.13-135.3Z"/><path class="cls-12" d="M2947,1689.5c30.36,99.79,32.79,214.87-24.66,256.56"/><path class="cls-5" d="M3045.88,1706.67c-93.6-28.3-372-28.71-413.54-21.51,260.31-45.15,396.8-26.56,396.8-26.56S3042.4,1680.74,3045.88,1706.67Z"/><line class="cls-12" x1="2438.47" y1="1948.04" x2="2584.62" y2="1948.04"/><polygon class="cls-12" points="2888.2 1848.73 2826.41 1890.52 2764.63 1848.73 2764.63 1757.08 2888.2 1757.08 2888.2 1848.73"/><polyline class="cls-12" points="3053.75 1878.38 3015.01 1848.73 3015.01 1757.08 3055.83 1757.08"/></g><g id="SHOES"><g id="RIGHT"><path class="cls-5" d="M3157,2186.6l-80-40.67a100.25,100.25,0,0,0-31.21-5H2722.52a5.24,5.24,0,0,1-.56,0c-20.56-.74-37.12-43.33-37.12-95.75,0-52.89,16.86-95.77,37.68-95.77a13.54,13.54,0,0,1,2,.14l334.35-8.13,155.25,246.78S3182.61,2199.94,3157,2186.6Z"/><path class="cls-13" d="M3182.17,2033.18c43.51,62.58,60.92,135.27,41.87,148.68-23.81,16.74-90.33-23.56-135.19-89.26s-73.78-139.52-23.71-151.18C3093.48,1934.82,3133.23,1962.78,3182.17,2033.18Z"/><line class="cls-14" x1="3041.7" y1="1995.42" x2="3153.46" y2="1995.42"/><line class="cls-14" x1="3038.59" y1="1970.35" x2="3129.91" y2="1970.35"/><line class="cls-14" x1="3047.96" y1="2017.71" x2="3171.06" y2="2017.71"/><line class="cls-14" x1="3057.74" y1="2039.99" x2="3186.78" y2="2039.99"/><line class="cls-14" x1="3070.16" y1="2062.28" x2="3200.22" y2="2062.28"/><line class="cls-14" x1="3085.22" y1="2084.57" x2="3211.43" y2="2084.57"/><polyline class="cls-14" points="3099.86 2106.86 3217.32 2106.86 3220.54 2106.86"/><line class="cls-14" x1="3118.08" y1="2129.14" x2="3227.39" y2="2129.14"/><line class="cls-14" x1="3142.11" y1="2151.43" x2="3230.29" y2="2151.43"/></g><g id="LEFT"><path class="cls-15" d="M3021.88,2193l-104.71-43.61a100.31,100.31,0,0,0-31.22-5H2562.72a5,5,0,0,1-.55,0c-20.56-.74-37.12-43.32-37.12-95.75,0-50.3,20-99.11,39.83-103.76h334.19l159.65,242C3062.89,2194,3036.36,2199.71,3021.88,2193Z"/><path class="cls-7" d="M2585.34,2144.44h-9.73c-16.23-14.08-28-53.45-28-99.24,0-45.18,13-85.91,30-100.29h9.91c-16.81,5-34.87,47-34.87,100.29C2552.62,2099.8,2569.3,2139.45,2585.34,2144.44Z"/><path class="cls-16" d="M3019.24,2038.76c43.51,62.59,60.92,135.27,41.87,148.68-23.81,16.75-90.33-23.55-135.19-89.26s-73.78-139.52-23.71-151.18C2930.55,1940.4,2970.3,1968.37,3019.24,2038.76Z"/><path class="cls-7" d="M3003.36,2185.32l-28.68-11.94a274,274,0,0,1-69.12-69.45c-37.21-54.51-54.17-111.33-42.19-141.39a36.11,36.11,0,0,1,14.21-17.63H2890c-10.58,2.91-17.95,9.47-21.94,19.48-11.39,28.58,5.36,83.52,41.67,136.72C2936.17,2139.9,2972.9,2169.93,3003.36,2185.32Z"/><line class="cls-17" x1="2877.66" y1="1966.53" x2="2956.64" y2="1966.53"/><line class="cls-17" x1="2875.66" y1="1988.81" x2="2979.76" y2="1988.81"/><line class="cls-17" x1="2879.84" y1="2011.1" x2="2997.19" y2="2011.1"/><line class="cls-17" x1="2888.2" y1="2033.39" x2="3015.96" y2="2033.39"/><line class="cls-17" x1="2899.69" y1="2055.67" x2="3030.86" y2="2055.67"/><line class="cls-17" x1="2912.23" y1="2077.96" x2="3042.44" y2="2077.96"/><line class="cls-17" x1="2927.9" y1="2100.25" x2="3052.89" y2="2100.25"/><line class="cls-17" x1="2943.57" y1="2122.54" x2="3059.97" y2="2122.54"/><line class="cls-17" x1="2963.42" y1="2144.82" x2="3066.61" y2="2144.82"/><line class="cls-17" x1="2990.58" y1="2167.11" x2="3068.77" y2="2167.11"/></g></g></g><g id="GIRL"><g id="SHOES-2" data-name="SHOES"><g id="RIGHT-2" data-name="RIGHT"><path class="cls-10" d="M1187.23,2196H963.3s-57-16.73-52-101.59c1.69-28.44,7.79-61.6,16.78-103l.22-3.12c66.9,2.81,138.73.53,205.89-12.11-11.25,58.1-16.62,103.43-11.44,125.54C1133.15,2146.13,1187.23,2196,1187.23,2196Z"/><path class="cls-5" d="M1134.1,1976.77,1121.28,2065s-136.36-10.46-197.61-52.38l4.41-24.35.6,0C995.62,1991.08,1067.42,1989,1134.1,1976.77Z"/><path class="cls-10" d="M1195.45,2205a8.95,8.95,0,0,1-9,8.95H964a8.95,8.95,0,1,0,0-17.9H1186.5A9,9,0,0,1,1195.45,2205Z"/></g><g id="LEFT-2" data-name="LEFT"><path class="cls-10" d="M963.3,2196H722.58a31.12,31.12,0,0,1-30.14-38.81l45.83-189.65c48.85,8.39,116.45,17.64,190,20.74l-.22,3.12c-9,41.41-15.09,74.57-16.78,103C906.28,2179.28,963.3,2196,963.3,2196Z"/><path class="cls-5" d="M928.08,1988.27,914.2,2065s-107.66-20.18-179.6-82.24l3.67-15.21c48.2,8.28,115.51,17.39,188.77,20.61Z"/><path class="cls-10" d="M972.93,2205a8.95,8.95,0,0,1-8.95,8.95H700.47a9,9,0,1,1,0-17.9H964A9,9,0,0,1,972.93,2205Z"/></g></g><path id="RIGHT_HAND" data-name="RIGHT HAND" class="cls-9" d="M1221.89,1031.16l-79.36-252.41c22.51,3.69,94.32,13.63,170.18,205.43,14.4,36.43,156.41,364.53,156.41,364.53s11.74,64.55-46.45,63C1391.43,1410.8,1243.5,1141.38,1221.89,1031.16Z"/><g id="CLOTHES"><path class="cls-3" d="M1268.34,1389.74c-12.27,120.82-97.13,411.47-131,586.44-141,26.54-305.78,7.38-399-8.63-46.91-8.06-76.53-15.32-77.55-15.57h0c6.58-192.49,125.07-330.37,168.47-636.41,24.2-170.66,22-351.86,21.32-469.14a74,74,0,0,1,74-74.38h183.1a94.49,94.49,0,0,1,89.1,63.14C1229.77,929,1295.38,1123.53,1268.34,1389.74Z"/><path class="cls-6" d="M1086.65,1357.51c-14.45,136.41-128.29,436.17-156.91,639"/></g><g id="WATERING_POT" data-name="WATERING POT"><path class="cls-18" d="M1387.85,1422.8l-204.55-59a68.07,68.07,0,0,1-42.82-94.23l121.89-260.89,245.43,71.34-33.55,285.75A68.08,68.08,0,0,1,1387.85,1422.8Z"/><path class="cls-18" d="M1507.8,1080.07c-7.8,27.07-67.44,33-135.79,13.35s-117.44-57.62-109.64-84.69,69.54-33,137.89-13.34S1515.61,1053,1507.8,1080.07Z"/><ellipse class="cls-5" cx="1384.48" cy="1044.04" rx="41.22" ry="115.44" transform="translate(-2.13 2085.23) rotate(-73.92)"/><polygon class="cls-18" points="1623.13 1144.34 1614.87 1172.96 1578.61 1224.19 1472.79 1373.7 1489.39 1244.4 1572.32 1182.34 1623.13 1144.34"/><path class="cls-5" d="M1623.13,1144.34l-8.26,28.62-36.26,51.23c-5.92-11.87-8.43-26.53-6.29-41.85Z"/><ellipse class="cls-18" cx="1634.24" cy="1165.29" rx="62.88" ry="50.9" transform="translate(248.11 2616.95) rotate(-81.81)"/><ellipse class="cls-18" cx="1640.23" cy="1135.26" rx="6.15" ry="4.98" transform="translate(282.97 2597.12) rotate(-81.81)"/><ellipse class="cls-18" cx="1630.83" cy="1194.81" rx="6.15" ry="4.98" transform="translate(215.97 2638.88) rotate(-81.81)"/><ellipse class="cls-18" cx="1636.05" cy="1165.56" rx="6.15" ry="4.98" transform="translate(249.4 2618.97) rotate(-81.81)"/><ellipse class="cls-18" cx="1660.08" cy="1153.02" rx="6.15" ry="4.98" transform="translate(282.42 2632) rotate(-81.81)"/><ellipse class="cls-18" cx="1655.9" cy="1183.32" rx="6.15" ry="4.98" transform="translate(248.84 2653.84) rotate(-81.81)"/><ellipse class="cls-18" cx="1615.16" cy="1146.76" rx="6.15" ry="4.98" transform="translate(250.09 2582.16) rotate(-81.81)"/><ellipse class="cls-18" cx="1610.98" cy="1177.05" rx="6.15" ry="4.98" transform="translate(216.52 2604) rotate(-81.81)"/><path class="cls-6" d="M1261.33,1009.78l-49.39-15.58c-58.47-16.85-114.35,33.44-103.73,93.36l32.27,182.06Z"/><path class="cls-19" d="M1660.12,1153a66.69,66.69,0,0,1,66.69,66.69v706.15"/><path class="cls-19" d="M1642.17,1135.27h49.72a78.78,78.78,0,0,1,78.79,78.79V1933"/><path class="cls-19" d="M1657,1183.32c12.11,1.2,20.72,22.54,20.72,59.37l1,707.2"/><line class="cls-19" x1="1630.7" y1="1194.64" x2="1630.7" y2="2010.79"/></g><g id="RIGHT_ARM" data-name="RIGHT ARM"><path class="cls-9" d="M1523.81,1243.46s20.45,38.82,17,67.25-46.3,78.68-93,101c0,0,28.53-17.41,11.89-77C1451.25,1304.42,1523.81,1243.46,1523.81,1243.46Z"/><path class="cls-6" d="M1513.36,1268.53s15.23,43,11.76,71.43"/><path class="cls-6" d="M1495.6,1290.47s15.23,43,11.76,71.43"/><path class="cls-6" d="M1475.75,1310.32s15.23,43,11.76,71.43"/></g><g id="LEFT_HAND" data-name="LEFT HAND"><path class="cls-9" d="M1250.91,1480.85c-36.9-12.76-152.32-91.73-252.12-230.76a1024.27,1024.27,0,0,1-67-106.49c-42.43-77.71-77.34-166.64-95.27-264.74-8.24-45.07,7.71-71.93,29.24-87.42,43.09-31,104-11.44,122.45,38.3,46.75,126,168.05,421,305.81,503.5,28,16.75-52.8,12.77-58.23,19.31-10.18,12.23,26.62,33.59,123,58.74C1381.07,1417.1,1271.55,1488,1250.91,1480.85Z"/><path class="cls-6" d="M1257.28,1403.86c20.39,8.85,44.48,17.77,89,26.24"/><path class="cls-6" d="M1237.43,1420.57c20.39,8.86,43.43,16.73,87.91,25.2"/><path class="cls-6" d="M1214.44,1438.33c20.4,8.86,34,17.78,78.52,26.24"/><path class="cls-6" d="M934.89,1142.56a44.66,44.66,0,0,1,10.08-4.64c27.93-8.83,59.22,11.38,69.9,45.14,8,25.25,2.18,50.94-13,66"/></g><g id="HEAD-3" data-name="HEAD"><g id="NECK-2" data-name="NECK"><path class="cls-9" d="M1101,772.13a17.07,17.07,0,0,1-.27,3.63c-1.36,8.28-9.14,27.83-52.07,27.22-54.42-.76-51.5-30.85-51.5-30.85l31.71-63H1114Z"/><path class="cls-5" d="M1101,772.13l13-63h-65S1048.88,757.23,1101,772.13Z"/></g><g id="HAIR-3" data-name="HAIR"><path class="cls-11" d="M1144.13,626.41c-4.55-12.9-17-15.89-17.47-16.06.19.4,4.69,10.2-15.29,31.87-20.4,22.13-62.3,12.26-62.3,12.26H1026.5A26.13,26.13,0,0,0,1002,671.63h0a25.94,25.94,0,0,0-1.59,9v1.18c0,.06,0,.13,0,.19-6.5,23.38-31.38,45.19-64.82,53.92-44,11.5-86.12-4-94.1-34.52s21.18-64.66,65.17-76.16c33.29-8.7,65.53-2,82.69,15.09-2.25-42,23.7-76.11,68-75.42C1131.18,566.05,1146.81,634,1144.13,626.41Z"/><circle class="cls-11" cx="797.85" cy="709.41" r="23.51"/></g><path id="HEAD-4" data-name="HEAD" class="cls-9" d="M1118.63,742.43c-36.41,7.86-69.56-33.34-69.56-33.34H1026.5A26.13,26.13,0,0,1,1000.37,683v-2.33a26.13,26.13,0,0,1,26.13-26.14h22.57s41.9,9.87,62.3-12.26c20-21.67,15.48-31.47,15.29-31.87a37.11,37.11,0,0,1,5.3,2c5.39,2.53,9.56,7.71,12.59,14.61C1159.48,660.84,1147.09,736.29,1118.63,742.43Z"/><g id="FACE"><path class="cls-6" d="M1042.14,686.91a19.44,19.44,0,0,0-19.44-19.44"/><path class="cls-6" d="M1150.92,659.84s-28.63-1-28.63,47.71"/><ellipse class="cls-5" cx="1139.79" cy="683.79" rx="6.39" ry="3.66" transform="translate(202.78 1626.51) rotate(-76.13)"/><ellipse class="cls-5" cx="1094.58" cy="682.36" rx="6.92" ry="3.96" transform="translate(169.8 1581.53) rotate(-76.13)"/></g></g></g></g></g></svg>